<svg width="519" height="514" viewBox="0 0 519 514" fill="none" xmlns="http://www.w3.org/2000/svg">
<path d="M204.851 445.657L199.027 497.354L193.291 495.069L198.674 453.219L198.219 453.037L173.168 487.053L166.795 484.514L171.995 442.591L171.54 442.41L146.672 476.498L140.936 474.212L172.254 432.672L178.082 434.993L173.572 476.241L173.936 476.386L199.024 443.336L204.851 445.657Z" fill="white"/>
<path d="M139.984 410.061C142.822 412.318 144.773 414.891 145.836 417.78C146.876 420.673 147.052 423.693 146.366 426.84C145.656 429.991 144.102 433.075 141.703 436.093C139.305 439.111 136.641 441.333 133.711 442.761C130.759 444.191 127.778 444.765 124.77 444.481C121.738 444.199 118.892 443.002 116.233 440.887C114.698 439.668 113.386 438.208 112.296 436.507C111.207 434.806 110.506 432.892 110.193 430.766C109.87 428.652 110.091 426.365 110.856 423.906C111.621 421.447 113.097 418.843 115.282 416.093L116.807 414.175L139.518 432.227L136.407 436.14L118.3 421.747C116.979 423.41 116.132 425.157 115.76 426.99C115.376 428.813 115.491 430.584 116.106 432.305C116.708 434.014 117.828 435.52 119.465 436.821C121.268 438.254 123.184 439.047 125.212 439.198C127.218 439.353 129.137 439 130.968 438.139C132.8 437.279 134.361 436.037 135.652 434.413L137.725 431.804C139.494 429.579 140.61 427.388 141.072 425.231C141.512 423.076 141.361 421.047 140.621 419.144C139.87 417.253 138.58 415.581 136.751 414.128C135.562 413.182 134.356 412.495 133.132 412.065C131.886 411.638 130.642 411.484 129.4 411.602C128.148 411.734 126.923 412.159 125.726 412.877L122.329 408.173C123.968 407.055 125.779 406.366 127.76 406.105C129.731 405.856 131.765 406.054 133.862 406.698C135.948 407.354 137.989 408.476 139.984 410.061Z" fill="white"/>
<path d="M117.771 391.26L78.2572 422.194L74.6926 417.641L89.2787 406.222L88.9766 405.836C88.2003 405.904 87.1818 405.955 85.9211 405.987C84.6375 406.017 83.2425 405.719 81.7362 405.094C80.207 404.465 78.6871 403.186 77.1767 401.257C75.2232 398.762 74.1252 396.074 73.8825 393.193C73.6399 390.313 74.2454 387.443 75.6992 384.583C77.1529 381.723 79.4362 379.074 82.5489 376.638C85.6873 374.181 88.8256 372.585 91.9638 371.85C95.0891 371.125 98.0221 371.215 100.763 372.119C103.491 373.033 105.821 374.724 107.755 377.194C109.245 379.098 110.123 380.869 110.389 382.507C110.642 384.155 110.605 385.605 110.278 386.857C109.938 388.119 109.629 389.128 109.351 389.886L109.774 390.426L114.327 386.861L117.771 391.26ZM99.449 398.384C101.687 396.632 103.405 394.758 104.602 392.763C105.786 390.778 106.367 388.778 106.345 386.762C106.31 384.756 105.578 382.84 104.148 381.014C102.658 379.11 100.912 377.914 98.9121 377.426C96.889 376.935 94.7704 377.038 92.5562 377.734C90.3191 378.428 88.1458 379.6 86.0363 381.251C83.9526 382.883 82.3264 384.674 81.1578 386.627C79.9662 388.576 79.3851 390.576 79.4145 392.628C79.421 394.677 80.1795 396.666 81.6899 398.595C83.1399 400.447 84.8278 401.636 86.7536 402.162C88.6665 402.697 90.7108 402.632 92.8864 401.966C95.0491 401.31 97.2367 400.116 99.449 398.384Z" fill="white"/>
<path d="M76.004 317.505L80.3089 332.38L32.1051 346.331L27.6094 330.796C26.2562 326.12 26.0632 321.84 27.0306 317.954C27.9822 314.074 29.9981 310.727 33.0783 307.914C36.1428 305.106 40.1699 302.979 45.1598 301.535C50.181 300.082 54.7628 299.725 58.9052 300.465C63.0319 301.21 66.5631 303.011 69.4988 305.868C72.4187 308.73 74.5871 312.609 76.004 317.505ZM73.4415 328.042L70.9348 319.38C69.7814 315.395 68.0566 312.314 65.7605 310.139C63.4644 307.963 60.7101 306.643 57.4976 306.178C54.2851 305.714 50.7174 306.049 46.7946 307.184C42.9031 308.31 39.7369 309.915 37.296 311.999C34.8394 314.088 33.2234 316.613 32.4482 319.575C31.6572 322.542 31.8067 325.908 32.8966 329.674L35.5939 338.995L73.4415 328.042Z" fill="white"/>
<path d="M68.3371 265.889C68.4429 269.514 67.7342 272.665 66.2108 275.34C64.6706 278 62.4763 280.082 59.6277 281.587C56.7622 283.076 53.4028 283.877 49.5493 283.99C45.6959 284.102 42.2791 283.499 39.299 282.181C36.3021 280.847 33.9421 278.938 32.219 276.456C30.4791 273.957 29.5595 271.01 29.4603 267.613C29.4031 265.654 29.6731 263.71 30.2704 261.78C30.8678 259.851 31.8783 258.081 33.3021 256.47C34.7095 254.86 36.5997 253.555 38.9728 252.554C41.3459 251.553 44.2877 251.002 47.7983 250.899L50.2475 250.827L51.0946 279.826L46.0982 279.972L45.4228 256.852C43.3001 256.914 41.4184 257.393 39.7777 258.291C38.1366 259.173 36.857 260.403 35.9389 261.982C35.0204 263.545 34.5916 265.372 34.6527 267.462C34.7199 269.764 35.3496 271.739 36.5417 273.388C37.717 275.02 39.224 276.259 41.0627 277.104C42.9014 277.949 44.8575 278.342 46.9312 278.281L50.2622 278.184C53.1033 278.101 55.4974 277.541 57.4445 276.503C59.3748 275.45 60.8286 274.027 61.8057 272.233C62.7666 270.44 63.2129 268.376 63.1447 266.041C63.1003 264.523 62.848 263.157 62.3877 261.945C61.9106 260.717 61.2262 259.667 60.3346 258.794C59.4266 257.921 58.3123 257.259 56.9918 256.808L58.3961 251.178C60.3074 251.71 62.0017 252.649 63.4792 253.995C64.9403 255.342 66.1007 257.024 66.9604 259.041C67.8038 261.06 68.2627 263.342 68.3371 265.889Z" fill="white"/>
<path d="M44.8423 205.764L45.3007 211.144C44.3887 211.3 43.4713 211.614 42.5486 212.084C41.6129 212.536 40.7782 213.24 40.0444 214.196C39.3107 215.153 38.7843 216.457 38.4652 218.109C38.0284 220.37 38.1857 222.355 38.937 224.064C39.6754 225.754 40.8385 226.753 42.4263 227.059C43.8378 227.332 45.0516 227.034 46.0678 226.165C47.0841 225.297 48.0755 223.825 49.0421 221.749L51.4488 216.524C52.8889 213.375 54.5914 211.15 56.5563 209.849C58.5051 208.545 60.7707 208.142 63.3529 208.641C65.47 209.05 67.2449 210.025 68.6775 211.566C70.1132 213.091 71.1031 215.029 71.6472 217.38C72.1913 219.731 72.1862 222.342 71.6316 225.213C70.9037 228.983 69.4831 231.944 67.3701 234.098C65.2571 236.252 62.5653 237.354 59.2947 237.405L58.9883 231.755C61.0762 231.626 62.7552 230.944 64.0254 229.709C65.2986 228.457 66.1598 226.669 66.6089 224.343C67.1201 221.697 66.9645 219.487 66.1423 217.715C65.3072 215.923 64.0956 214.874 62.5078 214.567C61.2247 214.319 60.0634 214.561 59.0238 215.292C57.9682 216.019 57.0442 217.272 56.2518 219.049L53.6187 224.929C52.1631 228.158 50.44 230.404 48.4492 231.666C46.4455 232.91 44.1686 233.285 41.6184 232.793C39.5334 232.39 37.802 231.448 36.4242 229.968C35.0496 228.471 34.1019 226.616 33.5811 224.402C33.0634 222.173 33.0555 219.759 33.5573 217.161C34.2636 213.504 35.6201 210.788 37.6267 209.013C39.6364 207.221 42.0416 206.139 44.8423 205.764Z" fill="white"/>
<path d="M78.0668 197.985L42.7225 185.051L44.7097 179.621L80.054 192.554L78.0668 197.985ZM37.8422 180.134C37.4549 181.193 36.7604 181.974 35.7587 182.477C34.7626 182.965 33.7584 183.023 32.7459 182.653C31.7334 182.282 31.0042 181.589 30.5583 180.574C30.118 179.543 30.0915 178.498 30.4788 177.44C30.8662 176.381 31.5579 175.608 32.5539 175.12C33.5556 174.617 34.5627 174.551 35.5751 174.921C36.5876 175.292 37.314 175.993 37.7543 177.023C38.2002 178.039 38.2296 179.076 37.8422 180.134Z" fill="white"/>
<path d="M105.771 172.975C104.369 175.391 102.853 177.288 101.223 178.665C99.6073 180.05 97.9616 181.031 96.2862 181.607C94.633 182.178 93.0446 182.474 91.5207 182.496L91.0353 176.889C91.891 176.781 92.9013 176.602 94.066 176.353C95.2448 176.111 96.4652 175.554 97.7272 174.681C99.0116 173.802 100.224 172.381 101.363 170.417C102.888 167.789 103.511 165.251 103.231 162.804C102.952 160.356 101.456 158.346 98.7429 156.771L92.1307 152.934L91.8847 153.358C92.265 154.07 92.6963 155.019 93.1787 156.206C93.6553 157.37 93.8678 158.777 93.8163 160.428C93.7588 162.057 93.1152 163.931 91.8854 166.05C90.3605 168.678 88.3696 170.677 85.9129 172.047C83.4643 173.402 80.7007 173.999 77.622 173.836C74.5515 173.66 71.3208 172.588 67.9299 170.62C64.5955 168.685 62.0323 166.414 60.2403 163.807C58.4341 161.191 57.4595 158.444 57.3166 155.566C57.1595 152.68 57.8762 149.866 59.4668 147.125C60.6966 145.006 62.0254 143.529 63.4533 142.696C64.8753 141.84 66.2241 141.339 67.4995 141.191C68.769 141.021 69.7929 140.917 70.5713 140.877L70.8664 140.369L65.6953 137.368L68.4992 132.536L101.984 151.967C104.782 153.59 106.688 155.546 107.702 157.834C108.738 160.116 109.047 162.562 108.629 165.171C108.232 167.774 107.28 170.375 105.771 172.975ZM87.786 162.765C88.9502 160.759 89.4749 158.797 89.36 156.879C89.2451 154.962 88.5349 153.143 87.2293 151.422C85.9237 149.701 84.07 148.144 81.6681 146.75C79.3227 145.389 77.0479 144.541 74.8436 144.206C72.6393 143.871 70.6268 144.101 68.8061 144.895C66.9853 145.69 65.4847 147.104 64.304 149.139C63.0742 151.258 62.5863 153.336 62.8402 155.372C63.1023 157.394 63.9327 159.282 65.3312 161.038C66.7379 162.78 68.5434 164.29 70.7474 165.569C73.008 166.881 75.2122 167.688 77.36 167.99C79.5018 168.27 81.4731 167.997 83.2738 167.172C85.0685 166.325 86.5726 164.856 87.786 162.765Z" fill="white"/>
<path d="M97.4733 119.854L113.872 135.465L109.885 139.653L82.625 113.703L86.4769 109.656L90.7363 113.711L91.0741 113.356C90.2981 111.399 90.1095 109.37 90.5084 107.269C90.8955 105.157 92.0689 103.071 94.0287 101.013C95.7858 99.167 97.7018 97.9125 99.7768 97.249C101.84 96.5743 104.001 96.5789 106.259 97.2628C108.506 97.9355 110.788 99.3756 113.107 101.583L130.428 118.072L126.441 122.261L109.404 106.042C107.263 104.003 105.065 102.971 102.811 102.946C100.546 102.909 98.4894 103.861 96.6423 105.801C95.3695 107.138 94.5218 108.609 94.0991 110.214C93.6877 111.807 93.7509 113.435 94.2886 115.097C94.8263 116.759 95.8879 118.345 97.4733 119.854Z" fill="white"/>
<path d="M155.086 100.793C152.052 102.78 148.997 103.825 145.92 103.927C142.847 104.007 139.925 103.227 137.151 101.587C134.383 99.9248 131.942 97.4813 129.829 94.2566C127.717 91.032 126.442 87.805 126.006 84.5756C125.574 81.3236 125.965 78.3138 127.179 75.5462C128.398 72.756 130.428 70.4298 133.27 68.5678C134.91 67.4936 136.708 66.706 138.665 66.2052C140.621 65.7043 142.658 65.6391 144.776 66.0094C146.884 66.3661 148.986 67.2936 151.081 68.7919C153.176 70.2902 155.185 72.5082 157.11 75.4459L158.453 77.4955L134.186 93.3944L131.447 89.2133L150.794 76.5371C149.631 74.7608 148.237 73.4086 146.613 72.4804C145.003 71.5432 143.285 71.0968 141.459 71.1411C139.646 71.1764 137.866 71.767 136.117 72.9129C134.19 74.1751 132.837 75.7455 132.056 77.6241C131.28 79.48 131.013 81.4125 131.255 83.4215C131.497 85.4306 132.187 87.3027 133.324 89.038L135.15 91.8255C136.708 94.203 138.438 95.9498 140.341 97.066C142.249 98.1596 144.222 98.6534 146.262 98.5474C148.293 98.4277 150.285 97.7278 152.239 96.4476C153.51 95.6151 154.541 94.6855 155.333 93.6588C156.13 92.6095 156.667 91.4766 156.944 90.2601C157.212 89.0299 157.193 87.7339 156.887 86.3722L162.419 84.6224C162.966 86.5296 163.052 88.4649 162.678 90.4283C162.296 92.378 161.47 94.2471 160.201 96.0356C158.922 97.8105 157.217 99.3962 155.086 100.793Z" fill="white"/>
<path d="M179.676 86.2172L165.454 51.3713L170.626 49.2603L172.775 54.5234L173.138 54.3753C173.069 52.3919 173.648 50.5238 174.873 48.771C176.098 47.0182 177.755 45.7159 179.842 44.8641C180.235 44.7036 180.73 44.5105 181.326 44.2849C181.922 44.0593 182.377 43.8999 182.692 43.8067L184.914 49.2513C184.714 49.28 184.27 49.3817 183.583 49.5564C182.904 49.7098 182.21 49.9316 181.499 50.2217C179.805 50.913 178.438 51.8857 177.397 53.1397C176.365 54.3724 175.717 55.7663 175.451 57.3213C175.195 58.855 175.388 60.4083 176.03 61.9812L185.03 84.0321L179.676 86.2172Z" fill="white"/>
<path d="M211.919 75.4295C210.747 75.7256 209.635 75.56 208.584 74.9328C207.532 74.3055 206.859 73.4058 206.562 72.2339C206.266 71.0619 206.432 69.9502 207.059 68.8987C207.687 67.8472 208.586 67.1734 209.758 66.8773C210.93 66.5811 212.042 66.7467 213.093 67.374C214.145 68.0013 214.819 68.9009 215.115 70.0729C215.311 70.8489 215.293 71.6116 215.061 72.361C214.845 73.1064 214.462 73.7591 213.913 74.3191C213.376 74.8593 212.711 75.2294 211.919 75.4295Z" fill="white"/>
<path d="M264.088 68.319L256.343 16.8746L262.475 17.5984L268.099 59.4168L268.586 59.4742L283.987 20.1377L290.8 20.942L296.618 62.7833L297.105 62.8407L312.311 23.4812L318.443 24.2051L298.934 72.4323L292.704 71.697L286.393 30.6857L286.004 30.6397L270.317 69.0543L264.088 68.319Z" fill="white"/>
<path d="M335.954 85.9276C332.628 84.4821 330.078 82.5011 328.304 79.9846C326.552 77.4596 325.6 74.588 325.449 71.3698C325.32 68.1431 326.024 64.762 327.56 61.2264C329.097 57.6908 331.096 54.8547 333.556 52.718C336.038 50.5728 338.769 49.2483 341.749 48.7445C344.75 48.2322 347.809 48.6532 350.925 50.0075C352.723 50.7889 354.368 51.8601 355.86 53.2212C357.352 54.5823 358.525 56.2496 359.377 58.223C360.235 60.1814 360.613 62.4473 360.51 65.0207C360.407 67.5942 359.655 70.4914 358.255 73.7124L357.278 75.9596L330.672 64.3954L332.664 59.8111L353.878 69.0312C354.724 67.0836 355.09 65.1765 354.975 63.3098C354.875 61.4496 354.306 59.7682 353.267 58.2658C352.243 56.7698 350.772 55.6051 348.854 54.7716C346.742 53.8535 344.686 53.5835 342.687 53.9615C340.71 54.3311 338.948 55.1682 337.401 56.4731C335.854 57.7779 334.667 59.3816 333.841 61.2842L332.512 64.3404C331.379 66.9472 330.868 69.3523 330.979 71.5557C331.112 73.7507 331.782 75.6717 332.99 77.3187C334.204 78.9508 335.882 80.2324 338.025 81.1635C339.418 81.7691 340.761 82.1213 342.054 82.2201C343.368 82.3105 344.61 82.1377 345.779 81.7018C346.955 81.251 348.028 80.5239 348.998 79.5208L353.497 83.1859C352.202 84.6893 350.631 85.8235 348.785 86.5884C346.945 87.3383 344.929 87.6733 342.737 87.5935C340.552 87.4987 338.291 86.9434 335.954 85.9276Z" fill="white"/>
<path d="M362.273 98.3443L392.443 58.244L397.063 61.7205L385.927 76.5232L386.318 76.8178C387.051 76.551 388.021 76.2388 389.231 75.8813C390.463 75.5205 391.888 75.4475 393.504 75.6622C395.144 75.8738 396.943 76.7161 398.901 78.1892C401.433 80.0944 403.189 82.4069 404.169 85.1265C405.148 87.8462 405.305 90.7753 404.641 93.914C403.976 97.0526 402.455 100.201 400.079 103.36C397.682 106.545 395.064 108.899 392.222 110.42C389.391 111.928 386.534 112.6 383.653 112.436C380.782 112.259 378.093 111.227 375.586 109.342C373.654 107.888 372.348 106.405 371.668 104.891C370.997 103.364 370.658 101.954 370.65 100.66C370.652 99.3533 370.689 98.2981 370.762 97.4945L370.214 97.082L366.738 101.703L362.273 98.3443ZM378.129 86.7243C376.421 88.9956 375.246 91.2497 374.606 93.4867C373.975 95.7106 373.931 97.7933 374.474 99.7347C375.026 101.663 376.229 103.325 378.083 104.719C380.015 106.173 382.01 106.876 384.068 106.83C386.149 106.781 388.169 106.134 390.128 104.889C392.11 103.641 393.906 101.946 395.517 99.8055C397.108 97.6908 398.215 95.5395 398.839 93.3515C399.486 91.1603 399.53 89.0776 398.971 87.1035C398.435 85.1261 397.188 83.4009 395.23 81.9278C393.35 80.5136 391.412 79.8017 389.416 79.7922C387.43 79.7696 385.472 80.3613 383.542 81.5672C381.623 82.7601 379.819 84.4791 378.129 86.7243Z" fill="white"/>
<path d="M421.694 158.789L413.688 145.533L456.644 119.591L465.005 133.434C467.521 137.601 468.815 141.686 468.885 145.689C468.969 149.684 467.887 153.438 465.64 156.952C463.406 160.457 460.065 163.553 455.619 166.238C451.144 168.94 446.81 170.47 442.618 170.827C438.439 171.175 434.562 170.348 430.987 168.347C427.426 166.337 424.329 163.151 421.694 158.789ZM421.444 147.948L426.106 155.666C428.25 159.218 430.713 161.748 433.494 163.255C436.274 164.763 439.276 165.326 442.5 164.944C445.723 164.562 449.083 163.315 452.579 161.204C456.046 159.11 458.69 156.741 460.509 154.096C462.342 151.444 463.25 148.586 463.232 145.524C463.229 142.454 462.214 139.241 460.187 135.885L455.171 127.579L421.444 147.948Z" fill="white"/>
<path d="M442.449 206.665C441.409 203.191 441.279 199.965 442.058 196.986C442.858 194.019 444.439 191.44 446.802 189.249C449.185 187.07 452.223 185.427 455.916 184.322C459.609 183.217 463.066 182.915 466.285 183.418C469.525 183.932 472.299 185.165 474.605 187.118C476.932 189.081 478.583 191.691 479.557 194.946C480.119 196.824 480.361 198.772 480.283 200.79C480.205 202.808 479.687 204.779 478.728 206.703C477.785 208.623 476.296 210.372 474.263 211.953C472.229 213.533 469.53 214.827 466.166 215.834L463.818 216.537L455.5 188.743L460.289 187.31L466.921 209.47C468.955 208.861 470.649 207.911 472.001 206.619C473.359 205.343 474.277 203.824 474.755 202.061C475.238 200.313 475.18 198.438 474.58 196.435C473.92 194.229 472.801 192.483 471.223 191.199C469.665 189.926 467.889 189.119 465.895 188.778C463.9 188.437 461.909 188.564 459.921 189.159L456.729 190.115C454.006 190.93 451.838 192.09 450.226 193.596C448.633 195.112 447.597 196.863 447.117 198.848C446.653 200.829 446.755 202.938 447.425 205.176C447.861 206.631 448.458 207.885 449.216 208.937C449.994 210 450.927 210.838 452.014 211.45C453.117 212.058 454.364 212.409 455.757 212.504L455.856 218.306C453.872 218.286 451.993 217.816 450.217 216.898C448.458 215.976 446.902 214.651 445.549 212.924C444.213 211.193 443.179 209.107 442.449 206.665Z" fill="white"/>
<path d="M489.317 262.331L450.848 250.918L450.461 245.05L487.101 228.688L487.513 234.947L458.27 247.286L458.295 247.677L488.905 256.072L489.317 262.331Z" fill="white"/>
<path d="M447.798 291.731C448.373 288.151 449.659 285.189 451.656 282.846C453.668 280.522 456.213 278.888 459.293 277.943C462.387 277.017 465.837 276.859 469.643 277.47C473.45 278.081 476.693 279.314 479.373 281.167C482.067 283.039 484.028 285.355 485.256 288.117C486.497 290.897 486.848 293.965 486.309 297.319C485.999 299.255 485.369 301.114 484.421 302.898C483.473 304.681 482.149 306.231 480.449 307.546C478.765 308.864 476.663 309.792 474.145 310.331C471.626 310.869 468.633 310.86 465.166 310.303L462.746 309.915L467.345 281.271L472.281 282.063L468.614 304.901C470.711 305.238 472.649 305.119 474.429 304.544C476.206 303.986 477.693 303.017 478.891 301.638C480.086 300.274 480.849 298.56 481.181 296.496C481.546 294.222 481.297 292.163 480.435 290.321C479.586 288.497 478.338 286.998 476.69 285.823C475.042 284.649 473.194 283.897 471.146 283.568L467.855 283.04C465.049 282.589 462.592 282.691 460.486 283.346C458.392 284.019 456.697 285.145 455.402 286.723C454.122 288.305 453.297 290.249 452.927 292.555C452.686 294.055 452.678 295.443 452.903 296.72C453.142 298.016 453.617 299.176 454.33 300.2C455.058 301.227 456.029 302.086 457.241 302.777L454.807 308.045C453.03 307.164 451.541 305.924 450.342 304.325C449.159 302.729 448.334 300.859 447.868 298.716C447.417 296.576 447.394 294.248 447.798 291.731Z" fill="white"/>
<path d="M487.443 341.551L439.956 325.328L441.826 319.856L489.313 336.079L487.443 341.551Z" fill="white"/>
<path d="M426.965 352.381C428.599 349.402 430.742 347.177 433.393 345.707C436.036 344.25 438.978 343.591 442.219 343.729C445.452 343.881 448.773 344.892 452.181 346.762C455.619 348.647 458.277 350.916 460.158 353.568C462.03 356.235 463.062 359.074 463.255 362.086C463.439 365.113 462.714 368.115 461.08 371.094C459.446 374.073 457.308 376.291 454.664 377.747C452.013 379.218 449.064 379.874 445.817 379.713C442.562 379.568 439.215 378.552 435.778 376.667C432.369 374.797 429.736 372.533 427.878 369.874C426.012 367.229 424.987 364.394 424.803 361.368C424.61 358.356 425.331 355.36 426.965 352.381ZM431.519 354.88C430.278 357.142 429.837 359.322 430.196 361.42C430.555 363.517 431.487 365.435 432.992 367.174C434.498 368.912 436.354 370.387 438.559 371.596C440.765 372.806 443.012 373.583 445.302 373.926C447.592 374.269 449.725 374.032 451.701 373.215C453.676 372.399 455.285 370.859 456.526 368.596C457.767 366.333 458.201 364.149 457.828 362.044C457.455 359.939 456.509 358.013 454.989 356.267C453.469 354.52 451.606 353.042 449.4 351.832C447.195 350.622 444.954 349.85 442.679 349.514C440.403 349.179 438.285 349.424 436.323 350.248C434.362 351.073 432.761 352.617 431.519 354.88Z" fill="white"/>
<path d="M401.518 368.614L439.762 403.478L435.998 407.606L431.58 403.579L431.118 404.086C431.314 404.84 431.534 405.836 431.776 407.073C432.019 408.334 431.958 409.759 431.592 411.348C431.227 412.961 430.219 414.673 428.569 416.483C426.434 418.825 423.966 420.356 421.167 421.075C418.367 421.794 415.436 421.675 412.374 420.718C409.312 419.761 406.32 417.951 403.398 415.288C400.453 412.603 398.356 409.774 397.109 406.803C395.874 403.842 395.473 400.935 395.908 398.082C396.355 395.24 397.635 392.66 399.748 390.342C401.376 388.555 402.976 387.394 404.547 386.859C406.13 386.335 407.566 386.13 408.855 386.244C410.156 386.369 411.203 386.505 411.996 386.654L412.326 386.292L397.622 372.887L401.518 368.614ZM422.025 395.001C419.925 393.086 417.791 391.705 415.624 390.857C413.47 390.02 411.4 389.78 409.416 390.138C407.445 390.506 405.677 391.548 404.115 393.262C402.486 395.049 401.598 396.969 401.45 399.022C401.303 401.099 401.757 403.171 402.812 405.238C403.869 407.328 405.387 409.276 407.367 411.081C409.322 412.864 411.36 414.169 413.479 414.996C415.6 415.846 417.669 416.085 419.687 415.715C421.706 415.367 423.541 414.288 425.192 412.477C426.777 410.739 427.668 408.876 427.865 406.89C428.074 404.914 427.669 402.91 426.65 400.875C425.643 398.852 424.102 396.894 422.025 395.001Z" fill="white"/>
<path d="M366.133 419.224C369.133 417.187 372.17 416.092 375.245 415.938C378.316 415.808 381.251 416.539 384.051 418.133C386.847 419.749 389.328 422.151 391.494 425.341C393.66 428.53 394.988 431.735 395.477 434.957C395.963 438.201 395.622 441.217 394.454 444.005C393.282 446.815 391.291 449.174 388.48 451.083C386.858 452.184 385.074 453.002 383.125 453.535C381.177 454.068 379.141 454.167 377.018 453.832C374.904 453.51 372.787 452.618 370.668 451.154C368.549 449.691 366.502 447.507 364.529 444.601L363.153 442.574L387.152 426.275L389.961 430.41L370.826 443.406C372.019 445.162 373.435 446.491 375.074 447.392C376.699 448.303 378.424 448.721 380.249 448.646C382.061 448.581 383.832 447.96 385.562 446.786C387.467 445.492 388.794 443.899 389.544 442.008C390.289 440.139 390.524 438.203 390.248 436.198C389.973 434.193 389.252 432.333 388.087 430.616L386.215 427.86C384.618 425.508 382.859 423.791 380.937 422.706C379.012 421.644 377.03 421.183 374.992 421.323C372.964 421.476 370.983 422.209 369.051 423.522C367.794 424.375 366.778 425.322 366.004 426.362C365.224 427.424 364.706 428.566 364.45 429.787C364.202 431.021 364.242 432.316 364.571 433.673L359.069 435.514C358.491 433.616 358.372 431.683 358.713 429.713C359.063 427.758 359.858 425.875 361.097 424.066C362.346 422.27 364.024 420.656 366.133 419.224Z" fill="white"/>
<path d="M341.788 434.206L356.586 468.811L351.449 471.008L349.214 465.781L348.853 465.935C348.955 467.917 348.407 469.794 347.211 471.567C346.015 473.34 344.381 474.67 342.308 475.556C341.918 475.723 341.426 475.924 340.834 476.16C340.242 476.395 339.789 476.562 339.476 476.661L337.164 471.254C337.363 471.222 337.805 471.113 338.489 470.927C339.165 470.762 339.856 470.529 340.562 470.227C342.244 469.507 343.595 468.512 344.615 467.241C345.626 465.991 346.252 464.587 346.491 463.028C346.722 461.49 346.503 459.94 345.835 458.378L336.471 436.48L341.788 434.206Z" fill="white"/>
<path d="M309.728 445.527C310.895 445.212 312.009 445.359 313.071 445.969C314.133 446.578 314.821 447.467 315.137 448.634C315.452 449.8 315.305 450.915 314.695 451.976C314.086 453.038 313.197 453.727 312.03 454.042C310.864 454.358 309.749 454.211 308.688 453.601C307.626 452.991 306.937 452.103 306.622 450.936C306.413 450.163 306.418 449.401 306.637 448.647C306.841 447.899 307.213 447.24 307.753 446.671C308.281 446.122 308.939 445.74 309.728 445.527Z" fill="white"/>
</svg>
